<?xml version="1.0" encoding="utf-8"?>
<!-- Generator: Adobe Illustrator 19.0.0, SVG Export Plug-In . SVG Version: 6.00 Build 0)  -->
<svg version="1.1" id="图层_1" xmlns="http://www.w3.org/2000/svg" xmlns:xlink="http://www.w3.org/1999/xlink" x="0px" y="0px"
	 viewBox="-5.5 336 153 153" style="enable-background:new -5.5 336 153 153;" xml:space="preserve">
<style type="text/css">
	.st0{fill:none;stroke:#5BB287;stroke-width:1.75;stroke-linecap:round;stroke-linejoin:round;stroke-miterlimit:10;}
	.st1{fill:none;stroke:#59AB83;stroke-width:1.75;stroke-linecap:round;stroke-linejoin:round;stroke-miterlimit:10;}
</style>
<path class="st0" d="M141.7,399.5c0.2,1,0.4,2,0.5,3"/>
<path class="st0" d="M142.8,408.2c0.1,1.1,0.1,2.3,0.2,3.5c0,0.6,0,1.2,0,1.8c0,39.5-32,71.5-71.5,71.5S0,453,0,413.5
	S32,342,71.5,342c4.2,0,8.4,0.4,12.4,1.1c0.8,0.1,1.5,0.3,2.3,0.4"/>
<path class="st0" d="M102.9,349.2c2,1,4,2.1,5.9,3.2c0.5,0.3,1,0.6,1.5,0.9c14.7,9.5,25.7,24.2,30.3,41.5"/>
<path class="st0" d="M93.9,345.6c0.7,0.2,1.4,0.4,2,0.6"/>
<path class="st1" d="M26.3,401.4c0,0,3.3-9.7,14.2-9.7c0,0,10.4,0.1,14.3,9.7"/>
<path class="st1" d="M89.7,401.4c0,0,3.3-9.7,14.2-9.7c0,0,10.4,0.1,14.3,9.7"/>
<path class="st1" d="M47,434.7c0,0,26.3,24.7,54.7,0"/>
</svg>
